<svg width="175" height="175" viewBox="0 0 175 175" fill="none" xmlns="http://www.w3.org/2000/svg">
<path d="M73.6194 137.499H54.8691V3.12493C54.8691 2.21406 54.577 1.46396 53.9907 0.878716C53.4048 0.293818 52.6567 0 51.7445 0H32.9942C32.0833 0 31.3332 0.292449 30.748 0.878374C30.1634 1.46498 29.8696 2.21406 29.8696 3.12459V137.499H11.1189C9.68779 137.499 8.71125 138.15 8.18997 139.451C7.66835 140.69 7.89718 141.829 8.87304 142.871L40.1228 174.122C40.8397 174.705 41.5871 174.998 42.369 174.998C43.2152 174.998 43.9643 174.705 44.6152 174.122L75.7675 142.969C76.4194 142.189 76.7443 141.405 76.7443 140.628C76.7443 139.712 76.4522 138.966 75.866 138.376C75.2797 137.792 74.532 137.499 73.6194 137.499Z" fill="black"/>
<path d="M160.24 64.6501L137.78 0H121.961L99.5014 64.6512H92.6673V75.0025H120.693V64.6501H113.369L117.958 50.5886H141.69L146.278 64.6501H138.956V75.0025H167.082V64.6501H160.24V64.6501ZM121.18 39.8467L128.308 18.557C128.568 17.7761 128.814 16.8314 129.041 15.7256C129.267 14.6194 129.382 14.0331 129.382 13.9685L129.674 12.0137H130.065C130.065 12.276 130.131 12.9266 130.258 13.9685L131.432 18.557L138.462 39.8467H121.18Z" fill="black"/>
<path d="M158.386 152.246H146.573V163.867H122.354C120.985 163.867 120.01 163.9 119.427 163.965L118.057 164.257V163.965L119.132 162.988C120.107 161.817 120.792 160.971 121.183 160.449L157.216 108.691V100H101.846V122.365H113.564V111.134H136.218C137.39 111.134 138.367 111.036 139.146 110.84C139.342 110.84 139.586 110.824 139.879 110.791C140.171 110.759 140.384 110.742 140.513 110.742V111.034L139.439 111.913C138.855 112.499 138.17 113.378 137.388 114.55L101.355 166.21V174.999H158.386V152.246Z" fill="black"/>
</svg>
