<?xml version="1.0" encoding="utf-8"?>
<!-- Svg Vector Icons : http://www.onlinewebfonts.com/icon -->
<!DOCTYPE svg PUBLIC "-//W3C//DTD SVG 1.1//EN" "http://www.w3.org/Graphics/SVG/1.1/DTD/svg11.dtd">
<svg version="1.1" xmlns="http://www.w3.org/2000/svg" xmlns:xlink="http://www.w3.org/1999/xlink" x="0px" y="0px" viewBox="0 0 1000 1000" enable-background="new 0 0 1000 1000" xml:space="preserve">
<metadata> Svg Vector Icons : http://www.onlinewebfonts.com/icon </metadata>
<g><path d="M407.6,10c-109.8,0-198.8,89-198.8,198.8c0,109.8,89,198.8,198.8,198.8s198.8-89,198.8-198.8C606.4,99,517.4,10,407.6,10z M407.6,507C105.6,507,10,705.8,10,705.8v99.4h441.1c-12.1-30.9-18.6-64.3-18.6-99.4c0-74,29.7-141.8,77.7-191C478.9,509.4,444.9,507,407.6,507z M705.8,507C596.6,507,507,596.6,507,705.8c0,109.2,89.6,198.8,198.8,198.8c36.4,0,69.9-10.6,99.4-28L918.6,990l71.4-71.4L876.6,805.2c17.3-29.5,28-63,28-99.4C904.6,596.6,815,507,705.8,507z M705.8,606.4c55.5,0,99.4,43.9,99.4,99.4c0,55.5-43.9,99.4-99.4,99.4c-55.5,0-99.4-43.9-99.4-99.4C606.4,650.3,650.3,606.4,705.8,606.4z"/></g>
</svg>